The.Newton.Boys.German.1998.AC3D.HDRip.Xvid-Doc.Snyder

Der amerikanische Traum wurde Ihnen zum Verhängnis: Als die vier ‘Newton Boys’ Anfang der 20er Jahre von der Farmarbeit in das ‘Bankgeschäft’ einsteigen, wird ihnen sehr schnell klar, daß hier das ganz große Geld zu holen ist. Zwischen Texas und Kanada ist kaum ein Safe vor ihnen sicher. Mit Nitroglyzerin, Frechheit und großem Risiko schaffen es die Brüder, achtzig Banken unerkannt auszurauben. Endlich sind sie am Ziel ihrer Träume angelangt – sie sind reich, angesehen und die schönsten Frauen liegen ihnen zu Füßen. Als sie jedoch ihr gesamtes Vermögen bei einer Ölspekulation verlieren, stehen sie plötzlich vor dem Ruin. Um wieder an Geld zu kommen, planen Sie den spektakulärsten Coup ihrer Karriere…

http://www.imdb.com/title/tt0120769/?ref_=sr_1

Format                                   : AVI
Format/Info                              : Audio Video Interleave
File size                                : 1.95 GiB
Duration                                 : 2h 2mn
Overall bit rate                         : 2 280 Kbps
Writing application                      : Nandub v1.0rc2
Writing library                          : Nandub build 1853/release

Video
ID                                       : 0
Format                                   : MPEG-4 Visual
Format profile                           : Advanced Simple@L1
Format settings, BVOP                    : 3
Format settings, QPel                    : No
Format settings, GMC                     : No warppoints
Format settings, Matrix                  : Default (H.263)
Codec ID                                 : XVID
Codec ID/Hint                            : XviD
Duration                                 : 2h 2mn
Bit rate                                 : 2 078 Kbps
Width                                    : 720 pixels
Height                                   : 306 pixels
Display aspect ratio                     : 2.35:1
Frame rate                               : 23.976 fps
Color space                              : YUV
Chroma subsampling                       : 4:2:0
Bit depth                                : 8 bits
Scan type                                : Progressive
Compression mode                         : Lossy
Bits/(Pixel*Frame)                       : 0.393
Stream size                              : 1.78 GiB (91%)
Writing library                          : Lavc55.12.102

Audio
ID                                       : 1
Format                                   : AC-3
Format/Info                              : Audio Coding 3
Mode extension                           : CM (complete main)
Format settings, Endianness              : Big
Codec ID                                 : 2000
Duration                                 : 2h 2mn
Bit rate mode                            : Constant
Bit rate                                 : 192 Kbps
Channel(s)                               : 2 channels
Channel positions                        : Front: L R
Sampling rate                            : 48.0 KHz
Bit depth                                : 16 bits
Compression mode                         : Lossy
Stream size                              : 168 MiB (8%)
Alignment                                : Split accross interleaves
Interleave, duration                     : 42 ms (1.00 video frame)
Interleave, preload duration             : 500 ms

